<svg width="190" height="54" viewBox="0 0 190 54" fill="none" xmlns="http://www.w3.org/2000/svg">
  <rect width="189.375" height="54" rx="27" fill="white"/>
  <rect x="9" y="9" width="76.5" height="36" rx="18" fill="#3F96D0"/>
  <path d="M31.23 18.125C32.61 18.125 33.795 18.365 34.785 18.845C35.79 19.31 36.555 19.97 37.08 20.825C37.62 21.68 37.89 22.6775 37.89 23.8175C37.89 24.9575 37.62 25.955 37.08 26.81C36.555 27.665 35.79 28.3325 34.785 28.8125C33.795 29.2775 32.61 29.51 31.23 29.51H23.85V26.0675H31.005C31.815 26.0675 32.4525 25.8725 32.9175 25.4825C33.3825 25.0775 33.615 24.5225 33.615 23.8175C33.615 23.1125 33.3825 22.565 32.9175 22.175C32.4525 21.77 31.815 21.5675 31.005 21.5675H24.2325L26.145 19.5875V35H21.8925V18.125H31.23ZM39.098 22.175H43.328L44.093 26.7875V35H39.908V26.45L39.098 22.175ZM50.213 21.995V25.595C49.808 25.505 49.403 25.4375 48.998 25.3925C48.608 25.3475 48.248 25.325 47.918 25.325C47.198 25.325 46.5455 25.475 45.9605 25.775C45.3905 26.06 44.933 26.5175 44.588 27.1475C44.258 27.7775 44.093 28.595 44.093 29.6L43.2605 28.565C43.3655 27.65 43.538 26.7875 43.778 25.9775C44.018 25.1675 44.348 24.455 44.768 23.84C45.188 23.21 45.7055 22.715 46.3205 22.355C46.9505 21.995 47.708 21.815 48.593 21.815C48.848 21.815 49.118 21.83 49.403 21.86C49.688 21.89 49.958 21.935 50.213 21.995ZM51.9003 21.995L53.9703 22.4225L56.0628 21.995V35H51.9003V21.995ZM53.9928 20.825C53.2578 20.825 52.6578 20.6375 52.1928 20.2625C51.7278 19.8725 51.4953 19.3625 51.4953 18.7325C51.4953 18.0875 51.7278 17.5775 52.1928 17.2025C52.6578 16.8275 53.2578 16.64 53.9928 16.64C54.7428 16.64 55.3428 16.8275 55.7928 17.2025C56.2428 17.5775 56.4678 18.0875 56.4678 18.7325C56.4678 19.3625 56.2428 19.8725 55.7928 20.2625C55.3428 20.6375 54.7428 20.825 53.9928 20.825ZM73.2008 30.8825C73.2008 31.8425 72.9158 32.66 72.3458 33.335C71.7908 33.995 70.9733 34.4975 69.8933 34.8425C68.8133 35.1875 67.5008 35.36 65.9558 35.36C64.3808 35.36 63.0008 35.165 61.8158 34.775C60.6308 34.385 59.7083 33.8375 59.0483 33.1325C58.3883 32.4275 58.0358 31.61 57.9908 30.68H62.2433C62.3333 31.055 62.5433 31.385 62.8733 31.67C63.2183 31.955 63.6608 32.1725 64.2008 32.3225C64.7408 32.4575 65.3783 32.525 66.1133 32.525C67.1033 32.525 67.8533 32.42 68.3633 32.21C68.8733 32 69.1283 31.685 69.1283 31.265C69.1283 30.95 68.9408 30.71 68.5658 30.545C68.2058 30.38 67.5533 30.26 66.6083 30.185L64.2683 30.005C62.7983 29.9 61.6283 29.6675 60.7583 29.3075C59.8883 28.9475 59.2658 28.49 58.8908 27.935C58.5308 27.38 58.3508 26.7575 58.3508 26.0675C58.3508 25.1225 58.6433 24.335 59.2283 23.705C59.8283 23.075 60.6533 22.6025 61.7033 22.2875C62.7533 21.9725 63.9833 21.815 65.3933 21.815C66.8033 21.815 68.0558 22.0025 69.1508 22.3775C70.2608 22.7525 71.1458 23.27 71.8058 23.93C72.4808 24.59 72.8633 25.3625 72.9533 26.2475H68.7008C68.6408 25.9475 68.4758 25.67 68.2058 25.415C67.9508 25.16 67.5758 24.9575 67.0808 24.8075C66.6008 24.6425 65.9708 24.56 65.1908 24.56C64.3058 24.56 63.6308 24.6575 63.1658 24.8525C62.7008 25.0475 62.4683 25.3325 62.4683 25.7075C62.4683 25.9925 62.6108 26.2175 62.8958 26.3825C63.1808 26.5475 63.7208 26.6675 64.5158 26.7425L67.5533 26.9675C68.9933 27.0875 70.1183 27.32 70.9283 27.665C71.7533 27.995 72.3383 28.43 72.6833 28.97C73.0283 29.51 73.2008 30.1475 73.2008 30.8825Z" fill="white"/>
  <path d="M96.4575 27.5975C96.4575 28.4975 96.63 29.27 96.975 29.915C97.32 30.56 97.8225 31.0625 98.4825 31.4225C99.1575 31.7675 99.9675 31.94 100.913 31.94C101.873 31.94 102.683 31.7675 103.343 31.4225C104.003 31.0625 104.505 30.56 104.85 29.915C105.195 29.27 105.368 28.4975 105.368 27.5975V18.125H109.193V27.7775C109.193 29.2925 108.848 30.62 108.158 31.76C107.468 32.885 106.5 33.7625 105.255 34.3925C104.01 35.0225 102.563 35.3375 100.913 35.3375C99.2625 35.3375 97.815 35.0225 96.57 34.3925C95.34 33.7625 94.3725 32.885 93.6675 31.76C92.9775 30.62 92.6325 29.2925 92.6325 27.7775V18.125H96.4575V27.5975ZM111.359 22.1975H115.116L115.926 27.08V35H112.169V26.5175L111.359 22.1975ZM120.809 21.86C122.024 21.86 123.059 22.1075 123.914 22.6025C124.769 23.0825 125.421 23.7725 125.871 24.6725C126.321 25.5725 126.546 26.645 126.546 27.89V35H122.789V28.4525C122.789 27.2975 122.511 26.4275 121.956 25.8425C121.401 25.2425 120.591 24.9425 119.526 24.9425C118.806 24.9425 118.169 25.1075 117.614 25.4375C117.074 25.7525 116.654 26.195 116.354 26.765C116.069 27.335 115.926 28.0175 115.926 28.8125L114.689 28.16C114.839 26.81 115.199 25.67 115.769 24.74C116.339 23.81 117.059 23.0975 117.929 22.6025C118.799 22.1075 119.759 21.86 120.809 21.86ZM129.193 22.0625L131.06 22.4225L132.95 22.0625V35H129.193V22.0625ZM131.06 20.735C130.385 20.735 129.83 20.5625 129.395 20.2175C128.975 19.8575 128.765 19.385 128.765 18.8C128.765 18.2 128.975 17.7275 129.395 17.3825C129.83 17.0225 130.385 16.8425 131.06 16.8425C131.75 16.8425 132.305 17.0225 132.725 17.3825C133.145 17.7275 133.355 18.2 133.355 18.8C133.355 19.385 133.145 19.8575 132.725 20.2175C132.305 20.5625 131.75 20.735 131.06 20.735ZM143.12 35.3375C141.53 35.3375 140.135 35.06 138.935 34.505C137.735 33.935 136.797 33.1475 136.122 32.1425C135.447 31.1225 135.11 29.945 135.11 28.61C135.11 27.26 135.447 26.0825 136.122 25.0775C136.797 24.0575 137.735 23.27 138.935 22.715C140.135 22.145 141.53 21.86 143.12 21.86C144.71 21.86 146.105 22.145 147.305 22.715C148.505 23.27 149.435 24.0575 150.095 25.0775C150.77 26.0825 151.107 27.26 151.107 28.61C151.107 29.945 150.77 31.1225 150.095 32.1425C149.435 33.1475 148.505 33.935 147.305 34.505C146.105 35.06 144.71 35.3375 143.12 35.3375ZM143.12 32.48C143.99 32.48 144.732 32.3225 145.347 32.0075C145.977 31.6925 146.457 31.25 146.787 30.68C147.132 30.095 147.305 29.405 147.305 28.61C147.305 27.8 147.132 27.11 146.787 26.54C146.457 25.955 145.977 25.505 145.347 25.19C144.732 24.875 143.99 24.7175 143.12 24.7175C142.265 24.7175 141.522 24.875 140.892 25.19C140.262 25.505 139.775 25.955 139.43 26.54C139.1 27.11 138.935 27.8 138.935 28.61C138.935 29.405 139.1 30.095 139.43 30.68C139.775 31.25 140.262 31.6925 140.892 32.0075C141.522 32.3225 142.265 32.48 143.12 32.48ZM152.645 22.1975H156.403L157.213 27.08V35H153.455V26.5175L152.645 22.1975ZM162.095 21.86C163.31 21.86 164.345 22.1075 165.2 22.6025C166.055 23.0825 166.708 23.7725 167.158 24.6725C167.608 25.5725 167.833 26.645 167.833 27.89V35H164.075V28.4525C164.075 27.2975 163.798 26.4275 163.243 25.8425C162.688 25.2425 161.878 24.9425 160.813 24.9425C160.093 24.9425 159.455 25.1075 158.9 25.4375C158.36 25.7525 157.94 26.195 157.64 26.765C157.355 27.335 157.213 28.0175 157.213 28.8125L155.975 28.16C156.125 26.81 156.485 25.67 157.055 24.74C157.625 23.81 158.345 23.0975 159.215 22.6025C160.085 22.1075 161.045 21.86 162.095 21.86Z" fill="#18202F"/>
</svg>